<?xml version="1.0" encoding="UTF-8" standalone="no"?>
<!DOCTYPE svg PUBLIC "-//W3C//DTD SVG 20010904//EN"
              "http://www.w3.org/TR/2001/REC-SVG-20010904/DTD/svg10.dtd">

<svg xmlns="http://www.w3.org/2000/svg"
     width="11.5254mm" height="9.15254mm"
     viewBox="0 0 340 270">
  <symbol id="puppet" viewBox="0 0 340 270">
    <path id="Selection"
          fill="currentColor" stroke="currentColor" stroke-width="1"
          d="M 165.00,28.00
             C 165.00,28.00 167.00,25.00 167.00,25.00
               167.00,25.00 168.00,32.00 168.00,32.00
               169.49,30.48 169.26,30.87 171.00,32.00
               173.41,28.79 174.11,29.13 178.00,29.00
               178.00,29.00 175.00,38.00 175.00,38.00
               175.00,38.00 179.00,36.00 179.00,36.00
               179.00,36.00 178.00,43.00 178.00,43.00
               184.29,38.96 180.58,34.95 179.00,28.00
               179.00,28.00 184.00,32.00 184.00,32.00
               189.96,32.32 189.66,36.04 191.00,41.00
               191.00,41.00 198.00,37.00 198.00,37.00
               198.00,37.00 198.00,46.00 198.00,46.00
               198.00,46.00 207.00,42.00 207.00,42.00
               207.00,42.00 199.00,54.00 199.00,54.00
               199.00,54.00 200.00,55.00 200.00,55.00
               200.00,55.00 208.00,54.00 208.00,54.00
               204.62,61.14 200.54,61.65 198.09,69.00
               193.39,83.12 200.34,80.57 194.00,91.00
               194.00,91.00 203.00,95.00 203.00,95.00
               204.12,99.47 206.70,100.65 206.95,106.00
               207.33,113.90 202.19,119.77 194.00,118.77
               191.37,118.46 188.46,117.03 186.00,116.00
               187.55,119.02 190.41,121.71 190.59,125.00
               190.97,131.80 181.15,141.88 180.67,148.00
               180.31,152.66 184.23,153.63 187.00,159.01
               187.00,159.01 189.98,167.00 189.98,167.00
               193.20,172.99 206.00,187.30 212.96,188.48
               217.09,189.18 219.71,183.08 221.18,180.00
               222.76,176.68 224.83,170.65 224.51,167.00
               224.18,163.28 221.65,156.18 222.35,153.06
               223.70,147.06 229.77,149.58 233.00,152.23
               233.00,152.23 238.00,157.00 238.00,157.00
               240.67,153.27 245.66,147.38 250.00,145.74
               255.31,143.73 258.85,146.47 258.86,152.00
               258.86,152.00 258.00,158.00 258.00,158.00
               258.00,158.00 262.00,155.91 262.00,155.91
               267.20,153.97 269.97,156.80 269.86,162.00
               269.76,167.15 266.56,171.73 264.00,176.00
               268.12,175.01 276.31,174.48 275.88,181.01
               275.35,189.14 260.44,193.21 257.90,196.41
               254.42,200.80 257.05,205.36 254.69,210.00
               253.29,212.75 250.22,215.72 248.08,217.99
               241.28,225.20 227.77,236.20 217.00,234.38
               211.87,233.52 208.39,229.62 204.88,226.15
               198.91,220.24 191.44,211.61 185.00,207.00
               185.00,207.00 186.00,234.00 186.00,234.00
               194.46,234.11 199.48,238.84 205.00,245.00
               198.21,246.93 180.75,246.09 173.00,246.00
               173.00,246.00 159.00,246.00 159.00,246.00
               159.00,246.00 143.00,247.00 143.00,247.00
               143.00,247.00 133.00,246.09 133.00,246.09
               128.22,245.76 127.00,246.42 122.00,245.00
               122.00,245.00 123.00,240.00 123.00,240.00
               120.69,241.87 118.91,243.44 116.00,244.35
               107.64,246.96 94.09,241.27 88.80,234.70
               85.25,230.29 86.66,227.04 82.47,222.18
               79.76,219.04 76.12,217.42 73.09,214.68
               69.31,211.24 65.57,204.89 64.05,200.00
               62.91,196.30 62.09,181.21 64.60,178.33
               66.54,176.10 68.48,176.59 71.00,177.00
               70.47,175.12 70.09,174.03 70.09,172.00
               70.09,156.84 87.41,172.33 92.00,175.00
               93.24,171.46 98.13,165.18 102.02,169.60
               104.32,172.22 103.66,180.75 104.94,185.00
               106.26,189.39 114.31,197.12 118.00,200.00
               118.00,200.00 131.56,170.00 131.56,170.00
               134.09,162.47 130.50,162.33 133.35,155.00
               133.35,155.00 137.94,144.00 137.94,144.00
               137.94,144.00 143.75,134.00 143.75,134.00
               144.11,131.93 144.00,129.19 143.75,127.00
               143.75,127.00 143.75,102.00 143.75,102.00
               144.00,99.97 144.08,96.91 143.75,95.00
               142.79,92.05 140.70,89.71 139.37,87.00
               136.35,80.83 134.00,74.66 129.96,69.00
               125.34,62.54 121.33,62.47 121.00,56.00
               121.00,56.00 115.00,53.00 115.00,53.00
               115.00,53.00 115.00,51.00 115.00,51.00
               115.00,51.00 127.00,50.00 127.00,50.00
               123.00,48.07 120.52,47.36 119.00,43.00
               119.00,43.00 128.00,45.00 128.00,45.00
               128.00,45.00 128.00,37.00 128.00,37.00
               132.83,38.74 132.28,43.31 134.00,48.00
               134.00,48.00 135.00,39.00 135.00,39.00
               135.00,39.00 138.00,40.00 138.00,40.00
               138.19,36.25 137.85,33.04 142.00,32.00
               143.19,29.04 142.99,29.08 146.00,28.00
               146.00,28.00 146.00,39.00 146.00,39.00
               146.00,39.00 147.00,35.00 147.00,35.00
               147.00,35.00 153.00,37.00 153.00,37.00
               153.00,37.00 148.00,27.00 148.00,27.00
               148.00,27.00 152.00,27.00 152.00,27.00
               152.00,27.00 155.00,25.00 155.00,25.00
               155.00,25.00 162.00,37.00 162.00,37.00
               162.00,37.00 157.00,23.00 157.00,23.00
               157.00,23.00 165.00,28.00 165.00,28.00 Z" />
  </symbol>
</svg>
